<svg width="348" height="50" viewBox="0 0 348 50" fill="none" xmlns="http://www.w3.org/2000/svg">
<path d="M195.817 43.242C205.954 43.242 214.081 35.0457 214.081 24.9087C214.081 14.7717 205.954 6.64384 195.817 6.64384C185.68 6.64384 177.553 14.8402 177.553 24.9087C177.575 34.9543 185.772 43.242 195.817 43.242ZM170.932 0H220.794V49.863H170.932V0Z" fill="black"/>
<path fill-rule="evenodd" clip-rule="evenodd" d="M98.1487 32.4658C95.2264 38.8128 88.8795 43.242 81.4595 43.242C71.6196 43.242 63.5604 35.3881 63.1951 25.6164H106.413V0H56.5742V49.863H106.436V32.4658H98.1487ZM63.9942 19.4749H98.8108C96.2538 10.9817 89.4046 6.64384 81.4824 6.64384C73.5602 6.64384 66.1859 11.2785 63.9942 19.4749Z" fill="black"/>
<path d="M49.862 0H0V49.863H49.862V32.4658H41.5973C38.7435 38.8128 32.3281 43.242 24.9766 43.242C14.8399 43.242 6.6437 34.9772 6.6437 24.9087C6.6437 14.8402 14.8399 6.64384 24.9766 6.64384C32.4651 6.64384 38.8805 11.21 41.7343 17.6941H49.862V0Z" fill="black"/>
<path d="M164.699 32.4658H156.435C153.946 39.0183 147.234 43.1735 139.609 43.1735C129.769 43.1735 121.481 36.0502 121.481 24.9087V0H113.057V49.863H164.699V32.4658Z" fill="black"/>
<path d="M337.107 40.4829C335.724 40.4829 334.474 40.2272 333.357 39.7159C332.239 39.1951 331.354 38.4422 330.7 37.4574C330.056 36.4725 329.734 35.2651 329.734 33.8352C329.734 32.6041 329.971 31.5909 330.445 30.7954C330.918 30 331.557 29.3702 332.362 28.9062C333.167 28.4422 334.067 28.0918 335.061 27.8551C336.055 27.6183 337.069 27.4384 338.101 27.3153C339.408 27.1638 340.468 27.0407 341.283 26.946C342.097 26.8418 342.689 26.6761 343.058 26.4488C343.428 26.2216 343.612 25.8522 343.612 25.3409V25.2415C343.612 24.0009 343.262 23.0397 342.561 22.3579C341.87 21.6761 340.838 21.3352 339.464 21.3352C338.035 21.3352 336.908 21.6524 336.084 22.2869C335.269 22.9119 334.706 23.6079 334.393 24.375L330.402 23.4659C330.875 22.1401 331.567 21.0701 332.476 20.2557C333.394 19.4318 334.45 18.8352 335.643 18.4659C336.837 18.0871 338.091 17.8977 339.408 17.8977C340.279 17.8977 341.202 18.0019 342.178 18.2102C343.162 18.4091 344.081 18.7784 344.933 19.3182C345.795 19.8579 346.5 20.6297 347.05 21.6335C347.599 22.6278 347.874 23.9204 347.874 25.5113V40H343.726V37.017H343.555C343.281 37.5663 342.869 38.106 342.32 38.6363C341.77 39.1666 341.065 39.607 340.203 39.9574C339.341 40.3077 338.309 40.4829 337.107 40.4829ZM338.03 37.0738C339.204 37.0738 340.208 36.8418 341.041 36.3778C341.884 35.9138 342.523 35.3077 342.959 34.5596C343.404 33.8021 343.626 32.9924 343.626 32.1307V29.3182C343.475 29.4697 343.181 29.6117 342.746 29.7443C342.32 29.8674 341.832 29.9763 341.283 30.071C340.733 30.1562 340.198 30.2367 339.678 30.3125C339.157 30.3788 338.721 30.4356 338.371 30.4829C337.547 30.5871 336.794 30.7623 336.112 31.0085C335.44 31.2547 334.9 31.6098 334.493 32.0738C334.095 32.5284 333.896 33.1344 333.896 33.892C333.896 34.9432 334.285 35.7386 335.061 36.2784C335.838 36.8087 336.827 37.0738 338.03 37.0738Z" fill="black"/>
<path d="M321.596 39.9999V18.1818H325.844V39.9999H321.596ZM323.741 14.8153C323.003 14.8153 322.368 14.5691 321.838 14.0766C321.317 13.5748 321.057 12.9782 321.057 12.2869C321.057 11.5861 321.317 10.9895 321.838 10.4971C322.368 9.99521 323.003 9.74426 323.741 9.74426C324.48 9.74426 325.11 9.99521 325.631 10.4971C326.161 10.9895 326.426 11.5861 326.426 12.2869C326.426 12.9782 326.161 13.5748 325.631 14.0766C325.11 14.5691 324.48 14.8153 323.741 14.8153Z" fill="black"/>
<path d="M305.524 40.4261C303.762 40.4261 302.19 39.9763 300.808 39.0767C299.435 38.1676 298.355 36.875 297.569 35.1988C296.793 33.5132 296.404 31.4914 296.404 29.1335C296.404 26.7755 296.797 24.7585 297.583 23.0824C298.379 21.4062 299.468 20.1231 300.85 19.2329C302.233 18.3428 303.8 17.8977 305.552 17.8977C306.906 17.8977 307.995 18.125 308.819 18.5795C309.652 19.0246 310.296 19.5454 310.751 20.142C311.215 20.7386 311.575 21.2642 311.83 21.7187H312.086V10.9091H316.333V40H312.186V36.6051H311.83C311.575 37.0691 311.205 37.5994 310.722 38.196C310.249 38.7926 309.596 39.3134 308.762 39.7585C307.929 40.2036 306.849 40.4261 305.524 40.4261ZM306.461 36.8039C307.683 36.8039 308.715 36.482 309.558 35.838C310.41 35.1846 311.054 34.2803 311.49 33.125C311.935 31.9697 312.157 30.625 312.157 29.0909C312.157 27.5757 311.939 26.25 311.504 25.1136C311.068 23.9772 310.429 23.0918 309.586 22.4574C308.743 21.8229 307.702 21.5056 306.461 21.5056C305.183 21.5056 304.117 21.8371 303.265 22.5C302.413 23.1628 301.769 24.0672 301.333 25.213C300.907 26.3589 300.694 27.6515 300.694 29.0909C300.694 30.5492 300.912 31.8608 301.347 33.0255C301.783 34.1903 302.427 35.1136 303.279 35.7954C304.141 36.4678 305.202 36.8039 306.461 36.8039Z" fill="black"/>
<path d="M284.083 40.4403C281.933 40.4403 280.082 39.981 278.529 39.0625C276.985 38.1344 275.792 36.8324 274.949 35.1562C274.116 33.4706 273.699 31.4962 273.699 29.2329C273.699 26.9981 274.116 25.0284 274.949 23.3238C275.792 21.6193 276.966 20.2888 278.472 19.3324C279.987 18.3759 281.758 17.8977 283.784 17.8977C285.016 17.8977 286.209 18.1013 287.364 18.5085C288.519 18.9157 289.556 19.5549 290.475 20.4261C291.393 21.2973 292.118 22.429 292.648 23.821C293.178 25.2036 293.444 26.8844 293.444 28.8636V30.3693H276.1V27.1875H289.282C289.282 26.0701 289.054 25.0805 288.6 24.2187C288.145 23.3475 287.506 22.661 286.682 22.1591C285.868 21.6572 284.911 21.4062 283.813 21.4062C282.62 21.4062 281.578 21.6998 280.688 22.2869C279.807 22.8646 279.125 23.6221 278.642 24.5596C278.169 25.4877 277.932 26.4962 277.932 27.5852V30.071C277.932 31.5293 278.188 32.7699 278.699 33.7926C279.22 34.8153 279.944 35.5966 280.873 36.1363C281.801 36.6666 282.885 36.9318 284.125 36.9318C284.93 36.9318 285.664 36.8182 286.327 36.5909C286.99 36.3541 287.563 36.0038 288.046 35.5397C288.529 35.0757 288.898 34.5028 289.154 33.821L293.174 34.5454C292.852 35.7291 292.274 36.7661 291.441 37.6562C290.617 38.5369 289.58 39.2235 288.33 39.7159C287.089 40.1988 285.674 40.4403 284.083 40.4403Z" fill="black"/>
<path d="M250.793 48.1818V18.1818H254.941V21.7187H255.296C255.542 21.2642 255.897 20.7386 256.361 20.142C256.825 19.5454 257.469 19.0246 258.293 18.5795C259.117 18.125 260.206 17.8977 261.56 17.8977C263.321 17.8977 264.893 18.3428 266.276 19.2329C267.658 20.1231 268.743 21.4062 269.529 23.0824C270.324 24.7585 270.722 26.7755 270.722 29.1335C270.722 31.4915 270.329 33.5132 269.543 35.1988C268.757 36.875 267.677 38.1676 266.304 39.0767C264.931 39.9763 263.364 40.4261 261.603 40.4261C260.277 40.4261 259.193 40.2036 258.35 39.7585C257.516 39.3134 256.863 38.7926 256.39 38.196C255.916 37.5994 255.551 37.0691 255.296 36.6051H255.04V48.1818H250.793ZM254.955 29.0909C254.955 30.625 255.177 31.9697 255.623 33.125C256.068 34.2803 256.712 35.1846 257.554 35.838C258.397 36.482 259.429 36.804 260.651 36.804C261.92 36.804 262.98 36.4678 263.833 35.7954C264.685 35.1136 265.329 34.1903 265.765 33.0255C266.21 31.8608 266.432 30.5492 266.432 29.0909C266.432 27.6515 266.214 26.3589 265.779 25.213C265.353 24.0672 264.709 23.1629 263.847 22.5C262.995 21.8371 261.929 21.5057 260.651 21.5057C259.42 21.5057 258.378 21.8229 257.526 22.4574C256.683 23.0918 256.044 23.9772 255.608 25.1136C255.173 26.25 254.955 27.5757 254.955 29.0909Z" fill="black"/>
</svg>
