<svg width="345" height="50" viewBox="0 0 345 50" fill="none" xmlns="http://www.w3.org/2000/svg">
<path d="M195.817 43.242C205.954 43.242 214.081 35.0457 214.081 24.9087C214.081 14.7717 205.954 6.64384 195.817 6.64384C185.68 6.64384 177.553 14.8402 177.553 24.9087C177.575 34.9543 185.772 43.242 195.817 43.242ZM170.932 0H220.794V49.863H170.932V0Z" fill="black"/>
<path fill-rule="evenodd" clip-rule="evenodd" d="M98.1487 32.4658C95.2264 38.8128 88.8795 43.242 81.4595 43.242C71.6196 43.242 63.5604 35.3881 63.1951 25.6164H106.413V0H56.5742V49.863H106.436V32.4658H98.1487ZM63.9942 19.4749H98.8108C96.2538 10.9817 89.4046 6.64384 81.4824 6.64384C73.5602 6.64384 66.1859 11.2785 63.9942 19.4749Z" fill="black"/>
<path d="M49.862 0H0V49.863H49.862V32.4658H41.5973C38.7435 38.8128 32.3281 43.242 24.9766 43.242C14.8399 43.242 6.6437 34.9772 6.6437 24.9087C6.6437 14.8402 14.8399 6.64384 24.9766 6.64384C32.4651 6.64384 38.8805 11.21 41.7343 17.6941H49.862V0Z" fill="black"/>
<path d="M164.699 32.4658H156.435C153.946 39.0183 147.234 43.1735 139.609 43.1735C129.769 43.1735 121.481 36.0502 121.481 24.9087V0H113.057V49.863H164.699V32.4658Z" fill="black"/>
<path d="M343.843 23.7642L339.993 24.4461C339.832 23.9536 339.577 23.4849 339.226 23.0398C338.885 22.5947 338.421 22.2301 337.834 21.9461C337.247 21.662 336.513 21.5199 335.632 21.5199C334.43 21.5199 333.426 21.7898 332.621 22.3296C331.816 22.8599 331.414 23.5464 331.414 24.3892C331.414 25.1184 331.684 25.7055 332.223 26.1506C332.763 26.5957 333.634 26.9603 334.837 27.2444L338.303 28.0398C340.31 28.5038 341.807 29.2188 342.792 30.1847C343.776 31.1506 344.269 32.4053 344.269 33.9489C344.269 35.2557 343.89 36.4205 343.132 37.4432C342.384 38.4565 341.338 39.2519 339.993 39.8296C338.658 40.4072 337.11 40.6961 335.348 40.6961C332.905 40.6961 330.912 40.1752 329.368 39.1336C327.825 38.0824 326.878 36.5909 326.527 34.6591L330.632 34.0341C330.888 35.1042 331.414 35.9139 332.209 36.4631C333.005 37.0029 334.042 37.2728 335.32 37.2728C336.712 37.2728 337.825 36.9839 338.658 36.4063C339.491 35.8192 339.908 35.1042 339.908 34.2614C339.908 33.5796 339.652 33.0067 339.141 32.5426C338.639 32.0786 337.867 31.7283 336.826 31.4915L333.132 30.6819C331.096 30.2178 329.591 29.4792 328.615 28.4659C327.65 27.4527 327.167 26.1695 327.167 24.6165C327.167 23.3286 327.526 22.2017 328.246 21.2358C328.966 20.2699 329.96 19.5171 331.229 18.9773C332.498 18.4281 333.952 18.1534 335.59 18.1534C337.948 18.1534 339.804 18.6648 341.158 19.6875C342.512 20.7008 343.407 22.0597 343.843 23.7642Z" fill="black"/>
<path d="M322.579 11.1648V40.2557H318.332V11.1648H322.579Z" fill="black"/>
<path d="M313.419 11.1648V40.2557H309.172V11.1648H313.419Z" fill="black"/>
<path d="M300.01 40.2557V18.4375H304.258V40.2557H300.01ZM302.155 15.071C301.417 15.071 300.782 14.8248 300.252 14.3324C299.731 13.8305 299.471 13.2339 299.471 12.5426C299.471 11.8419 299.731 11.2453 300.252 10.7528C300.782 10.2509 301.417 10 302.155 10C302.894 10 303.524 10.2509 304.045 10.7528C304.575 11.2453 304.84 11.8419 304.84 12.5426C304.84 13.2339 304.575 13.8305 304.045 14.3324C303.524 14.8248 302.894 15.071 302.155 15.071Z" fill="black"/>
<path d="M282.451 32.8551L282.423 27.6705H283.161L291.855 18.4375H296.94L287.025 28.9489H286.357L282.451 32.8551ZM278.545 40.2557V11.1648H282.792V40.2557H278.545ZM292.323 40.2557L284.511 29.8864L287.437 26.9176L297.536 40.2557H292.323Z" fill="black"/>
<path d="M269.81 18.8069C269.658 17.4622 269.033 16.4205 267.935 15.6819C266.837 14.9338 265.454 14.5597 263.787 14.5597C262.594 14.5597 261.562 14.7491 260.691 15.1279C259.819 15.4972 259.142 16.0086 258.659 16.662C258.186 17.3059 257.949 18.0398 257.949 18.8637C257.949 19.555 258.11 20.1516 258.432 20.6535C258.764 21.1553 259.194 21.5768 259.725 21.9177C260.265 22.2491 260.842 22.5285 261.458 22.7557C262.073 22.9735 262.665 23.1535 263.233 23.2955L266.074 24.0341C267.002 24.2614 267.954 24.5692 268.929 24.9574C269.905 25.3457 270.809 25.8571 271.642 26.4915C272.476 27.126 273.148 27.912 273.659 28.8495C274.18 29.787 274.441 30.9091 274.441 32.216C274.441 33.8637 274.015 35.3267 273.162 36.6052C272.319 37.8836 271.093 38.8921 269.483 39.6307C267.883 40.3694 265.946 40.7387 263.674 40.7387C261.496 40.7387 259.611 40.393 258.02 39.7017C256.429 39.0105 255.184 38.0303 254.284 36.7614C253.385 35.483 252.888 33.9678 252.793 32.216H257.196C257.282 33.2671 257.623 34.143 258.219 34.8438C258.825 35.5351 259.597 36.0512 260.534 36.3921C261.481 36.7235 262.518 36.8892 263.645 36.8892C264.886 36.8892 265.989 36.6951 266.955 36.3069C267.93 35.9091 268.697 35.3599 269.256 34.6591C269.815 33.9489 270.094 33.1203 270.094 32.1733C270.094 31.3116 269.848 30.6061 269.355 30.0569C268.873 29.5076 268.214 29.0531 267.381 28.6932C266.557 28.3334 265.624 28.0161 264.583 27.7415L261.145 26.804C258.816 26.1696 256.969 25.2368 255.605 24.0057C254.251 22.7747 253.574 21.1459 253.574 19.1194C253.574 17.4432 254.029 15.9802 254.938 14.7302C255.847 13.4802 257.078 12.5095 258.631 11.8182C260.184 11.1175 261.936 10.7671 263.887 10.7671C265.856 10.7671 267.594 11.1127 269.1 11.804C270.615 12.4953 271.808 13.447 272.679 14.6591C273.551 15.8618 274.005 17.2444 274.043 18.8069H269.81Z" fill="black"/>
</svg>
